<svg id="Layer_1" data-name="Layer 1" xmlns="http://www.w3.org/2000/svg" viewBox="0 0 571 205"><defs><style>.cls-1{fill:#1e1e1e;}</style></defs><title>logo_3</title><polygon class="cls-1" points="46 205 0 205 66 0 112 0 46 205"/><polygon class="cls-1" points="525 205 571 205 505 0 459 0 525 205"/><polygon points="138 205 92 205 158 0 204 0 138 205"/><polygon points="224 205 270 205 204 0 158 0 224 205"/><path class="cls-1" d="M443,102.5A102.49,102.49,0,0,1,340.5,205H316l-14.81-46H340.5a56.5,56.5,0,0,0,0-113H264.81L250,0h90.5A102.5,102.5,0,0,1,443,102.5Z"/></svg>