<svg id="Layer_1" data-name="Layer 1" xmlns="http://www.w3.org/2000/svg" viewBox="0 0 445 205"><defs><style>.cls-1{fill:#1e1e1e;}</style></defs><title>logo_2</title><polygon class="cls-1" points="46 205 0 205 66 0 112 0 46 205"/><polygon class="cls-1" points="132 205 178 205 112 0 66 0 132 205"/><polygon points="178 205 132 205 198 0 244 0 178 205"/><polygon points="264 205 310 205 244 0 198 0 264 205"/><rect x="399" width="46" height="205"/><path class="cls-1" d="M398.5,46h.5V0h-.5a102.5,102.5,0,1,0,0,205h.5V159h-.5a56.5,56.5,0,0,1,0-113Z"/></svg>