<svg id="Layer_1" data-name="Layer 1" xmlns="http://www.w3.org/2000/svg" xmlns:xlink="http://www.w3.org/1999/xlink" viewBox="0 0 548.09 202.26"><defs><style>.cls-1{fill:none;}.cls-2{fill:#4fa873;}.cls-3{clip-path:url(#clip-path);}.cls-4{fill:#2e8b57;}</style><clipPath id="clip-path"><rect class="cls-1" width="548.09" height="202.26"/></clipPath></defs><title>logo_6</title><polygon class="cls-2" points="158 0 224 202.26 270 202.26 204 0 158 0"/><polygon class="cls-2" points="436.09 0 502.1 202.26 548.1 202.26 482.1 0 436.09 0"/><g class="cls-3"><path class="cls-4" d="M436.09,101.13A101.13,101.13,0,0,1,335,202.26H316l-15-46h34A55.13,55.13,0,0,0,335,46H265L250,0H335A101.13,101.13,0,0,1,436.09,101.13"/><polygon class="cls-4" points="132 202.26 178 202.26 112 0 66 0 132 202.26"/><polygon class="cls-2" points="46 202.26 0 202.26 66 0 112 0 46 202.26"/></g></svg>