<svg id="Layer_1" data-name="Layer 1" xmlns="http://www.w3.org/2000/svg" viewBox="0 0 482.01 208.03"><defs><style>.cls-1{fill:#1e1e1e;}</style></defs><title>logo_4</title><rect x="436.01" y="0.02" width="46" height="208"/><polygon points="137 208 91 208 157 0 203 0 137 208"/><polygon points="223 208 269 208 203 0 157 0 223 208"/><polygon points="127 47.27 104 119.76 89 72.5 46 208.03 0 208.03 66 0.03 66.01 0.03 66 0 112 0 127 47.27"/><path class="cls-1" d="M422,104a104.45,104.45,0,0,1-30,73.54A101.46,101.46,0,0,1,319.51,208H295L280.2,161.33h39.31c31.15,0,56.5-25.72,56.5-57.33s-25.35-57.33-56.5-57.33H243.82L229,0h90.5C376.12,0,422,46.56,422,104Z"/></svg>