<?xml version="1.0" encoding="utf-8"?>
<!-- Generator: Adobe Illustrator 23.1.0, SVG Export Plug-In . SVG Version: 6.00 Build 0)  -->
<svg version="1.1" id="Layer_1" xmlns="http://www.w3.org/2000/svg" xmlns:xlink="http://www.w3.org/1999/xlink" x="0px" y="0px"
	 viewBox="0 0 286 286" style="enable-background:new 0 0 286 286;" xml:space="preserve">
<style type="text/css">
	.st0{fill:#279E3B;}
	.st1{fill:#238E32;}
	.st2{fill:#FFF3F3;}
	.st3{fill:#E9DFDA;}
</style>
<path class="st0" d="M79.1,87c-3.9-1.2-7.9-2.1-12.1-2.1c-22.2,0-40.2,18-40.2,40.2c0,4.4,0.9,8.6,2.2,12.5
	c-17.3,10.1-29,28.6-29,50c0,32.1,26,58.1,58.1,58.1v0H143V40.7C114.6,43.9,90.7,62,79.1,87z"/>
<g>
	<path class="st1" d="M231.6,113c-3.9-40.8-37.9-72.8-79.7-72.8c-3,0-6,0.2-8.9,0.5v71.5h14.5c1.9,0,3.4,1.5,3.4,3.4V157h20.3
		c2.6,0,4,3,2.3,5l-37.9,44.6c-0.7,0.8-1.6,1.2-2.6,1.2v38h76v0c37,0,67-30,67-67C286,146.1,262.6,118.9,231.6,113z"/>
	<path class="st2" d="M143,112.2h-14.5c-1.9,0-3.4,1.5-3.4,3.4V157H143V112.2z"/>
	<path class="st3" d="M160.9,157v-41.4c0-1.9-1.5-3.4-3.4-3.4H143V157H160.9z"/>
	<path class="st2" d="M125.1,157h-20.3c-2.6,0-4,3-2.3,5l37.9,44.6c0.7,0.8,1.6,1.2,2.6,1.2V157H125.1z"/>
	<path class="st3" d="M183.5,162c1.7-2,0.3-5-2.3-5h-20.3H143v50.8c1,0,1.9-0.4,2.6-1.2L183.5,162z"/>
</g>
</svg>
