<?xml version="1.0" encoding="utf-8"?>
<!-- Generator: Adobe Illustrator 23.1.0, SVG Export Plug-In . SVG Version: 6.00 Build 0)  -->
<svg version="1.1" id="Layer_1" xmlns="http://www.w3.org/2000/svg" xmlns:xlink="http://www.w3.org/1999/xlink" x="0px" y="0px"
	 viewBox="0 0 548.1 202.3" style="enable-background:new 0 0 548.1 202.3;" xml:space="preserve">
<style type="text/css">
	.st0{fill:#4FA873;}
	.st1{clip-path:url(#SVGID_2_);fill:#2E8B57;}
	.st2{clip-path:url(#SVGID_2_);fill:#4FA873;}
</style>
<polygon class="st0" points="158,0 224,202.3 270,202.3 204,0 "/>
<polygon class="st0" points="436.1,0 502.1,202.3 548.1,202.3 482.1,0 "/>
<g>
	<defs>
		<rect id="SVGID_1_" width="548.1" height="202.3"/>
	</defs>
	<clipPath id="SVGID_2_">
		<use xlink:href="#SVGID_1_"  style="overflow:visible;"/>
	</clipPath>
	<path class="st1" d="M436.1,101.1c0,27.9-11.3,53.2-29.6,71.5c-18.3,18.3-43.6,29.6-71.5,29.6h-19l-15-46h34
		c30.4,0,55.1-24.7,55.1-55.1S365.4,46,335,46H265L250,0H335c27.9,0,53.2,11.3,71.5,29.6C424.8,47.9,436.1,73.2,436.1,101.1"/>
	<polygon class="st1" points="132,202.3 178,202.3 112,0 66,0 	"/>
	<polygon class="st2" points="46,202.3 0,202.3 66,0 112,0 	"/>
</g>
</svg>
