<?xml version="1.0" encoding="utf-8"?>
<!-- Generator: Adobe Illustrator 23.1.0, SVG Export Plug-In . SVG Version: 6.00 Build 0)  -->
<svg version="1.1" id="Layer_1" xmlns="http://www.w3.org/2000/svg" xmlns:xlink="http://www.w3.org/1999/xlink" x="0px" y="0px"
	 viewBox="0 0 512 512" style="enable-background:new 0 0 512 512;" xml:space="preserve">
<style type="text/css">
	.st0{fill:#279E3B;}
	.st1{fill:#238E32;}
	.st2{fill:none;}
	.st3{fill:#FFF3F3;}
	.st4{fill:#E9DFDA;}
</style>
<path class="st0" d="M236.1,335.9c0,23.3,7.4,45,19.9,62.7V273.2C243.5,290.9,236.1,312.6,236.1,335.9z"/>
<path class="st0" d="M184.5,31.3C124.5,31.3,75.9,80,75.9,140s48.7,108.7,108.7,108.7c27.4,0,52.4-10.1,71.5-26.8V58.1
	C236.9,41.4,211.9,31.3,184.5,31.3z"/>
<path class="st0" d="M236.1,335.9c0-23.3,7.4-45,19.9-62.7v-13.1c-8.9-2.3-18.2-3.6-27.8-3.6c-60,0-108.7,48.7-108.7,108.7
	c0,60,48.7,108.7,108.7,108.7c9.6,0,18.9-1.3,27.8-3.6v-71.7C243.5,380.9,236.1,359.2,236.1,335.9z"/>
<path class="st1" d="M293.2,140c0-32.7-14.4-62-37.2-81.9v163.8C278.8,202,293.2,172.7,293.2,140z"/>
<path class="st1" d="M336.9,365.2c0,28.2-10.7,53.8-28.3,73.2c11.3,4,23.5,6.2,36.2,6.2c60,0,108.7-48.7,108.7-108.7
	c0-60-48.7-108.7-108.7-108.7c-31.8,0-60.5,13.7-80.4,35.5C306.6,277.7,336.9,317.9,336.9,365.2z"/>
<path class="st1" d="M256,398.6c12.9,18.2,31.2,32.3,52.6,39.8c17.6-19.3,28.3-45,28.3-73.2c0-47.3-30.2-87.6-72.5-102.5
	c-3,3.3-5.8,6.8-8.4,10.5V398.6z"/>
<path class="st0" d="M2.4,115.2h507.3v265.4H2.4V115.2z"/>
<path class="st1" d="M256,115.2h253.6v265.4H256V115.2z"/>
<g>
	<path class="st2" d="M104.8,202.2H92.6V259h12.2c21.5,0,31.2-9.5,31.2-27.9C136,212.5,125.6,202.2,104.8,202.2z"/>
	<path class="st2" d="M232.3,202.2v93H247c3.2,0,6.2-0.1,9-0.4v-92.2c-2.8-0.2-5.7-0.4-8.8-0.4H232.3z"/>
	<path class="st3" d="M109.9,172.6H58.7v152.1h33.9v-37.2h15.3c38.4,0,63.4-24.8,63.4-58.5C171.3,194.3,146.9,172.6,109.9,172.6z
		 M104.8,259H92.6v-56.8h12.2c20.9,0,31.2,10.3,31.2,28.9C136,249.5,126.3,259,104.8,259z"/>
	<path class="st3" d="M247,295.2h-14.7v-93h14.9c3.1,0,6.1,0.1,8.8,0.4v-29.9c-1.1,0-2.1-0.1-3.3-0.1h-54.4v152.1h54.6
		c1,0,2,0,3.1-0.1v-29.9C253.2,295,250.1,295.2,247,295.2z"/>
	<polygon class="st4" points="457.5,202.2 457.5,172.6 358.6,172.6 358.6,324.7 392.5,324.7 392.5,274.3 450.9,274.3 450.9,244.7 
		392.5,244.7 392.5,202.2 	"/>
	<path class="st4" d="M330.4,247.2c0-44.6-20.5-73.4-74.4-74.6v29.9c28.1,2.4,38.7,16.9,38.7,45.3c0,29.7-11.8,44.4-38.7,46.9v29.9
		C305.8,323.5,330.4,293.8,330.4,247.2z"/>
</g>
<path class="st1" d="M264.4,262.7c-2.8-1-5.6-1.8-8.4-2.6v13.1C258.6,269.6,261.4,266.1,264.4,262.7z"/>
<path class="st1" d="M308.6,438.4c-21.4-7.6-39.7-21.6-52.6-39.8v71.7C276.5,464.9,294.7,453.6,308.6,438.4z"/>
</svg>
