<svg id="Layer_1" data-name="Layer 1" xmlns="http://www.w3.org/2000/svg" viewBox="0 0 512 512"><defs><style>.cls-1{fill:#efcca3;}.cls-2{fill:#cdad8e;}.cls-3{fill:#010101;}.cls-4{fill:#fff;}.cls-5{fill:#56342b;}.cls-6{fill:#452924;}.cls-7{fill:#804b42;}.cls-8{fill:#331712;}</style></defs><title>Artboard 2</title><path class="cls-1" d="M423,198.69c-.78-17,1.55-32.11-6.19-44.88-18.57-31.73-65-50.3-157.87-50.3v2.71h0v-2.71c-92.86,0-141.62,18.57-160.19,50.69-7.35,13.15-6.58,27.85-7.74,44.88-.77,13.54-7,27.86-4.25,43.34,3.09,20.12,4.25,40.24,7.35,58.81,2.32,15.09,23.21,27.86,25.15,42.17,5.42,39.47,46.43,57.66,139.29,57.66v3.09H259v-3.09c92.86,0,132.33-18.19,137.36-57.66,1.94-14.7,21.28-27.08,23.6-42.17,3.1-18.57,4.26-38.69,7.35-58.81C430,226.94,423.8,212.23,423,198.69Z"/><path class="cls-2" d="M257.42,212.62c16.64.39,28.25,10.84,39.08,20.51,12.77,11.22,34.44,19,43.34,28.63s20.51,19.35,24.76,34.44S370,330.64,370,335.67s2.71,3.86,10.45,0c18.18-8.9,38.3-32.89,38.3-32.89-2.32,15.09-22,28.63-24,43-4.64,39.46-42.95,58.42-137.74,58.42H259"/><path class="cls-2" d="M318.56,182.44c3.48,12,15.86,52.62-8.13,39.08,0,0,10.06,5.8,16.25,27.86,6.58,22.05,22.44,24.76,22.44,24.76s25.93,5,45.28-11.6c16.25-13.93,19-38.7,12-57.66-7-18.57-19.35-24.37-37.53-28.24C350.67,172.38,314.3,168.9,318.56,182.44Z"/><circle class="cls-3" cx="364.6" cy="226.55" r="34.05"/><circle class="cls-4" cx="355.7" cy="211.46" r="8.9"/><path class="cls-1" d="M312.75,225s30.57,20.9,47.21,41.4,16.25,24.38,16.25,24.38l-12,5.42s-17-32.12-37.92-44.11C305,240.09,302.69,230,302.69,230Z"/><path class="cls-2" d="M258.58,212.62c-16.63.39-29,10.84-40.24,20.51-12.77,11.22-35.21,19-44.11,28.63s-20.89,19.35-25.15,34.44-5.8,34.44-5.8,39.47.77,5.41-10.45,0c-18.18-8.52-38.31-32.89-38.31-32.89,2.33,15.09,22.06,28.63,24,43,5.42,39.46,43.73,58.42,138.53,58.42H259"/><path class="cls-5" d="M348.35,278C329.78,255.18,300,233.9,258.58,233.9h-.38c-41.41,0-71.2,21.28-89.77,44.11-19.35,23.61-17.8,32.89-17.8,55.33,0,81.26,28.63,58,47.59,68.1,19.35,9.68,39.47,6.58,60,6.58h.38c20.9,0,40.63,2.71,60-7,19-9.68,47.59,14.31,47.59-66.94C366.54,311.68,367.7,301.62,348.35,278Z"/><path class="cls-6" d="M256.65,254s-2.71,37.54-8.13,44.89l10.06-2.32Z"/><path class="cls-6" d="M259.36,254s2.71,37.54,8.12,44.89l-10.06-2.32Z"/><path class="cls-5" d="M226.85,245.12c-3.86-8.9,10.07-23.21,32.12-23.6,22.06,0,36,14.32,32.12,23.6s-17.8,12-32.12,12.39C245,257.12,230.72,254.41,226.85,245.12Z"/><path class="cls-3" d="M259,254c0-1.54,13.16-1.93,20.12-6.57,0,0-14.32,4.64-17.41,2.7-3.1-1.54-3.87-6.19-3.87-6.19s-1.16,4.65-3.48,6.19c-2.71,1.55-19-2.7-19-2.7S257,252.86,257,254s-.39,5-.39,7.74c0,9.67,0,33.66,1.55,35.6,2.32,3.48,1.54-25.93,1.54-35.6C259.36,258.67,259.36,255.57,259,254Z"/><path class="cls-7" d="M259.74,305.87c6.58,0,18.19,4.64,28.64,12-10.06-11.22-22.06-19-28.64-19-7,0-21.66,8.51-32.11,20.89C238.46,311.29,252.39,305.87,259.74,305.87Z"/><path class="cls-6" d="M257,374.36c-14.71,0-29-4.64-42.18-8.13-2.71-.77-5.42,1.16-8.13.39-24.37-7.74-44.11-20.89-56.1-37.53V333c0,81.25,28.63,58.42,47.59,68.1,19.35,9.67,39.47,6.57,60,6.57h.38c20.9,0,40.63,2.71,60-7,19-9.67,47.59,13.93,47.59-67.33a65.13,65.13,0,0,1,.39-8.9c-11.22,18.19-31.73,32.51-57.27,41-2.32.77-7.74-1.16-10.06-.77C285.28,369.33,272.9,374.36,257,374.36Z"/><path class="cls-6" d="M220.28,330.64s-9.68,29-3.1,41.78l-8.9-3.87S214.86,339.15,220.28,330.64Z"/><path class="cls-6" d="M296.89,330.64s9.67,29,3.09,41.78l8.9-3.87S301.92,339.15,296.89,330.64Z"/><path class="cls-2" d="M195.51,182.44c-3.48,12-15.86,52.62,8.13,39.08,0,0-10.06,5.8-16.25,27.86S165,274.14,165,274.14s-25.93,5-45.27-11.6c-16.26-13.93-19-38.7-12-57.66s19.35-24.37,37.53-28.24C163.4,172.38,199.38,168.9,195.51,182.44Z"/><path class="cls-3" d="M258.58,298.91c10.45,0,42.95,22.44,43.34,49.91v-1.55c0-28.63-26.31-51.46-43.34-51.46S215.25,319,215.25,347.27v1.55C215.63,321.35,248.14,298.91,258.58,298.91Z"/><ellipse class="cls-8" cx="265.58" cy="239.71" rx="3.1" ry="5.8" transform="translate(-51.44 73.91) rotate(-14.46)"/><ellipse class="cls-8" cx="248.86" cy="239.73" rx="5.8" ry="3.1" transform="translate(-53.84 406.39) rotate(-72.76)"/><circle class="cls-3" cx="151.4" cy="226.55" r="34.05"/><circle class="cls-4" cx="160.3" cy="211.46" r="8.9"/><path class="cls-7" d="M268.64,226.94c0-.39-8.9,3.87-11.22,4.25-2.32-.38-11.22-4.64-11.22-4.25h22.44Z"/><path class="cls-1" d="M200.93,225s-30.57,20.9-47.2,41.4-16.26,24.38-16.26,24.38l12,5.42s17-32.12,37.92-44.11S211,230,211,230Z"/><path class="cls-2" d="M134,163.09s-10.45,28.64-33.66,40.63C100.33,203.72,136.7,199.47,134,163.09Z"/><path class="cls-2" d="M378.14,163.09s10.45,28.64,33.67,40.63C411.81,203.72,375.44,199.47,378.14,163.09Z"/><path class="cls-2" d="M312,216.49s-22.83-24-53.4-24.76h.78c-31,.77-53.4,24.76-53.4,24.76,26.7-18.57,49.53-18.18,53.4-18.18h0C259,198.31,285.28,197.92,312,216.49Z"/><path class="cls-2" d="M285.28,166.19s-11.61-16.25-27.08-16.64H259c-11.61.39-26.7,16.64-26.7,16.64,13.16-12.77,26.7-12.38,26.7-12.38h0S271.74,153.42,285.28,166.19Z"/><path class="cls-2" d="M151.4,285s-18.18,8.9-31.34,3.48h-.38c-11.61-6.58-17.42-26.31-17.42-26.31S113.87,297,151.4,285Z"/><path class="cls-2" d="M363.44,285s18.19,8.9,31.34,3.48h0c15.48-6.58,17.8-26.31,17.8-26.31S401,297,363.44,285Z"/><path class="cls-2" d="M172.3,161.16c10.06-1.93,26.7-2.32,39.85,1.93,16.64,5.81,3.1,27.09,6.58,28.25s8.12-14.7,39.08-13.16c31.34,1.55,34.82,15.48,39.08,13.16s-4.26-38.69,42.56-30.18c0,0-49.14-13.16-46.82,22.44,0,0-28.24-21.67-67.71-2.32C225.31,181.28,235.37,148,172.3,161.16Z"/><path class="cls-2" d="M343.71,161.16c.77,0,1.16.39,1.55.39S344.87,161.16,343.71,161.16Z"/><path class="cls-2" d="M158.76,113.57s-41.79,52.62-48,72.74c-6.19,20.51-10.84,104.47-16.26,116.47L75.18,220l35.6-86.28Z"/><path class="cls-2" d="M355.32,113.57s41.78,52.62,48,72.74c6.19,20.51,10.83,104.47,16.25,116.47L438.89,220,403.3,133.69Z"/><path class="cls-5" d="M353.38,113.57s44.89,37.53,58,80.87,7.74,95.95,17.8,102.53c14.32,9.29,30.57-46,36-51.85,8.52-9.28,36.76-32.89,38.7-37.14s-57.27-68.88-83.19-81.64C389.37,111.63,350.67,110.47,353.38,113.57Z"/><path class="cls-6" d="M391.69,136.78s53,67.72,52.23,152.07l21.28-43.34C464.82,245.51,446.24,190.18,391.69,136.78Z"/><path class="cls-5" d="M158.76,113.57s-44.89,37.53-58,80.87S93,290.39,82.92,297c-14.32,9.29-30.57-46-36-51.85C38.42,235.84,10.17,212.23,8.24,208s57.27-68.88,83.19-81.64C122.77,111.63,161.46,110.47,158.76,113.57Z"/><path class="cls-6" d="M120.45,136.78s-53,67.72-52.24,152.07L47.32,245.51S65.89,190.18,120.45,136.78Z"/><path class="cls-2" d="M91.82,290.39s3.87,20.9,10.06,27.48,1.93-5,1.93-5-6.58-3.49-5.42-30.18S91.82,290.39,91.82,290.39Z"/><path class="cls-2" d="M421.87,290.39s-3.87,20.9-10.06,27.48-1.94-5-1.94-5,6.58-3.49,5.42-30.18S421.87,290.39,421.87,290.39Z"/><circle class="cls-6" cx="218.34" cy="274.53" r="3.1"/><circle class="cls-6" cx="200.54" cy="293.1" r="3.1"/><circle class="cls-6" cx="194.74" cy="274.53" r="3.1"/><circle class="cls-6" cx="293.79" cy="274.53" r="3.1"/><circle class="cls-6" cx="311.59" cy="293.1" r="3.1"/><circle class="cls-6" cx="317.4" cy="274.53" r="3.1"/></svg>