<svg id="Layer_1" data-name="Layer 1" xmlns="http://www.w3.org/2000/svg" viewBox="0 0 512 512"><defs><style>.cls-1{fill:#d06397;}</style></defs><title>Artboard 1</title><path class="cls-1" d="M434.84,287.25a101.89,101.89,0,0,0-44.91,10.45c-4.6-9.19-9.26-17.26-10-23.27-.92-7-2-11.2-.87-19.55s5.93-20.18,5.86-21.07-1.08-5.14-11.07-5.21-18.55,1.92-19.55,4.56a98.66,98.66,0,0,0-4.13,14.77c-1.75,9.06-19.95,41.38-30.29,58.29-3.38-6.6-6.25-12.42-6.85-17-.92-7-2-11.2-.87-19.55s5.93-20.18,5.86-21.07-1.08-5.14-11.07-5.21-18.55,1.92-19.55,4.56-2.08,8.8-4.13,14.77S257,322.58,250.65,336.55c-3.23,7.12-6,12.84-8,16.75l0,0-.33.7c-1.7,3.32-2.71,5.16-2.71,5.16l0,.07c-1.35,2.44-2.79,4.71-3.5,4.71-.5,0-1.5-6.5.21-15.42,3.6-18.7,12.25-47.87,12.17-48.87,0-.52,1.6-5.6-5.65-8.26-7.05-2.58-9.57,1.73-10.21,1.74s-1.09,1.52-1.09,1.52,7.86-32.8-15-32.8c-14.29,0-34.08,15.63-43.83,29.79-6.15,3.35-19.31,10.54-33.28,18.21l-16,8.82-1.07-1.17C94.64,287.93,43.43,267,45.6,227.3c.79-14.45,5.82-52.48,98.4-98.62,75.84-37.79,136.56-27.39,147.05-4.34,15,32.93-32.45,94.13-111.21,103-30,3.36-45.81-8.27-49.74-12.6-4.14-4.56-4.76-4.77-6.3-3.91-2.52,1.39-.92,5.42,0,7.82,2.35,6.12,12,17,28.45,22.37,14.48,4.75,49.71,7.36,92.32-9.12,47.72-18.46,85-69.81,74-112.73-11.13-43.66-83.52-58-152-33.67C125.82,99.94,81.68,122.68,50,152.36c-37.73,35.29-43.75,66-41.27,78.85,8.81,45.6,71.67,75.3,96.84,97.31l-3.47,1.91c-12.62,6.25-60.53,31.32-72.52,57.82-13.59,30.05,2.17,51.61,12.6,54.52,32.33,9,65.5-7.19,83.33-33.78s15.64-61.2,7.46-77c-.1-.2-.21-.39-.32-.58l9.88-5.83c6.42-3.77,12.73-7.29,18.2-10.26-3.06,8.38-5.3,18.44-6.47,33-1.37,17.06,5.62,39.11,14.77,47.79,4,3.82,8.87,3.91,12,3.91,10.64,0,15.5-8.86,20.85-19.34,6.56-12.84,12.38-27.8,12.38-27.8s-7.31,40.4,12.6,40.4c7.25,0,14.54-9.4,17.79-14.2l0,.08s.19-.31.55-.93c.76-1.16,1.18-1.89,1.18-1.89s0-.08,0-.21c2.92-5.06,9.38-16.6,19.08-35.63C278,315.87,290,285.07,290,285.07a165.29,165.29,0,0,0,4.78,20c2.16,7.32,6.73,15.42,10.34,23.19-2.9,4-4.69,6.35-4.69,6.35l.05.12c-2.32,3.08-4.93,6.41-7.65,9.65-9.89,11.78-21.67,25.22-23.24,29.11-1.86,4.57-1.42,7.93,2.17,10.64,2.62,2,7.29,2.28,12.16,1.95a55.25,55.25,0,0,0,18.22-4.14,61.16,61.16,0,0,0,15.67-8.24c9.7-7.13,15.55-17.33,15-30.84-.31-7.45-2.68-14.83-5.69-21.8.88-1.26,1.77-2.54,2.65-3.83a413.59,413.59,0,0,0,27.15-46.92,165.29,165.29,0,0,0,4.78,20c1.85,6.3,5.51,13.18,8.8,19.92-14.38,11.68-23.3,25.25-26.39,34.16-5.73,16.47-1.24,23.93,7.17,25.63,3.81.77,9.19-1,13.23-2.69a61.35,61.35,0,0,0,16.74-8.6c9.7-7.13,19-17.12,18.46-30.63A57.33,57.33,0,0,0,395.47,310c12.18-5.08,28-7.9,48.06-5.56,43.12,5,51.57,32,50,43.23S482.83,365.09,479.8,367s-3.94,2.52-3.69,3.91c.37,2,1.77,1.94,4.34,1.51,3.55-.6,22.65-9.17,23.46-30C505,316,479.65,287,434.84,287.25Zm-332.34,112c-14.28,15.58-34.23,21.47-42.79,16.51-9.23-5.36-5.58-28.3,11.95-44.83,10.68-10.08,24.47-19.36,33.62-25.07,2.08-1.26,5.14-3.1,8.86-5.32.61-.36,1-.55,1-.55v0l2.21-1.33C123.68,362.22,117.49,382.93,102.5,399.29Zm104.05-70.73c-5,12.12-15.39,43.15-21.72,41.48-5.44-1.42-8.76-25-1.09-48.22,3.86-11.68,12.1-25.64,16.94-31.06,7.8-8.72,16.38-11.57,18.46-8C221.8,287.23,209.67,321,206.55,328.56Zm85.95,41c-2.1,1.1-4,1.8-4.94,1.26-.66-.39.87-1.84.87-1.84s10.76-11.57,15-16.84c2.46-3.06,5.32-6.7,8.43-10.76,0,.4,0,.81,0,1.21C311.86,356.45,298.47,365.81,292.5,369.57Zm66.22-15.09c-1.57-1.12-1.31-4.74,3.87-16a60.2,60.2,0,0,1,14.72-19,27.26,27.26,0,0,1,1.48,8.34C378.69,345.26,366.25,351.77,358.72,354.48Z"/></svg>