<svg xmlns="http://www.w3.org/2000/svg" viewBox="0 0 352.9 209.29"><defs><style>.cls-1{fill:#c9b485;}.cls-2{fill:#3c6d3c;}.cls-3,.cls-4{fill:none;stroke-linecap:round;stroke-linejoin:round;stroke-width:7px;}.cls-3{stroke:#aa9772;}.cls-4{stroke:#b25656;}</style></defs><title>icon-1</title><g id="Layer_2" data-name="Layer 2"><g id="Layer_1-2" data-name="Layer 1"><g id="Ikon_-_Manillamærke" data-name="Ikon - Manillamærke"><path class="cls-1" d="M226.11,0,0,75.76,44.74,209.29l226.11-75.77,35.74-86.23ZM261,83.78a20.11,20.11,0,1,1,12.68-25.46A20.11,20.11,0,0,1,261,83.78Z"/><path class="cls-2" d="M51.39,74.49l5.39-1.81,2.16,6.47a35.56,35.56,0,0,1,11.14-1.38A21.21,21.21,0,0,1,82,81.06a16.53,16.53,0,0,1,6.8,8.78,10.18,10.18,0,0,1,.09,7.29,7.18,7.18,0,0,1-4.52,4.19,7,7,0,0,1-5.43-.32,6.86,6.86,0,0,1-3.57-4.16,10.1,10.1,0,0,1,.33-6.68q1.26-3.91,1-4.81-.6-1.8-4.16-2.61a25.32,25.32,0,0,0-12.06.83l11.64,34.75q15.69.18,24.33,5.4a26.54,26.54,0,0,1,11.81,14.71q3.45,10.27-1.23,19.12t-17.08,14L92.08,178l-5.39,1.81-2.18-6.49a35,35,0,0,1-14.46,1.88,20.9,20.9,0,0,1-11.2-4,17.63,17.63,0,0,1-6-8.44,11.81,11.81,0,0,1-.2-8.14A7.38,7.38,0,0,1,57.34,150a7.14,7.14,0,0,1,5.85.43,8.36,8.36,0,0,1,4,5.05,8.22,8.22,0,0,1-.88,7.15c-1.61,2.73-2.3,4.43-2.07,5.12.43,1.28,2,2.17,4.82,2.67q5.77,1.05,14-1.48L70.76,132.3q-27,.33-33.47-18.92a24.32,24.32,0,0,1,1-19q4.35-9,15.28-13.4ZM66,118,55.06,85.44q-7.92,3.23-11,9.12a14.89,14.89,0,0,0-1,12.11,14.56,14.56,0,0,0,6.63,8.17Q54.5,117.68,66,118Zm10.9,14.62L88.4,167.06q8.59-3.74,11.88-9.91a15.85,15.85,0,0,0-6.06-21.38Q89,132.76,76.85,132.58Z"/><line class="cls-3" x1="111.02" y1="68.72" x2="178.28" y2="46.18"/><line class="cls-3" x1="129.35" y1="123.43" x2="155.28" y2="114.74"/><line class="cls-3" x1="138.51" y1="150.78" x2="198.58" y2="130.65"/><line class="cls-3" x1="189.66" y1="42.37" x2="199.07" y2="39.22"/><line class="cls-3" x1="208.23" y1="66.57" x2="140.97" y2="89.11"/><line class="cls-3" x1="129.6" y1="92.92" x2="120.18" y2="96.07"/><line class="cls-3" x1="166.49" y1="110.98" x2="172.68" y2="108.91"/><line class="cls-3" x1="183.77" y1="105.19" x2="217.4" y2="93.92"/><line class="cls-3" x1="209.75" y1="126.91" x2="226.56" y2="121.27"/><path class="cls-4" d="M254.53,65.79A93,93,0,0,0,299,39.41C304,34,308.47,28,314.54,23.76A17.22,17.22,0,0,1,320.47,21a15.49,15.49,0,0,1,7,.25c10.48,2.56,18,12.39,20.59,22.86s1,21.51-1.32,32c-1.29,5.8-2.84,11.61-5.71,16.8-4.26,7.72-11.13,13.59-18,19.11a123.25,123.25,0,0,0-11.09,9.56,54.47,54.47,0,0,0-8.3,65.14"/></g></g></g></svg>