<svg xmlns="http://www.w3.org/2000/svg" viewBox="0 0 293.63 247.66"><defs><style>.cls-1{fill:#6d6248;}.cls-2{fill:#9f8f69;}.cls-3{fill:#b7a944;}.cls-4{fill:#3c6d3c;}.cls-5{fill:#515151;}.cls-6{fill:none;stroke:#515151;stroke-miterlimit:10;stroke-width:10px;}.cls-7{fill:#b25656;}</style></defs><title>icon-4</title><g id="Layer_2" data-name="Layer 2"><g id="Layer_1-2" data-name="Layer 1"><g id="Ikon_-_Shopping" data-name="Ikon - Shopping"><polygon class="cls-1" points="251.78 161.92 109.67 177.57 109.67 92.76 251.78 88.18 251.78 161.92"/><polygon class="cls-2" points="232.68 88.8 161.44 91.09 161.44 13.01 232.68 13.01 232.68 88.8"/><rect class="cls-3" x="161.44" y="20.68" width="31.55" height="14.94"/><rect class="cls-4" x="109.67" y="107.37" width="43.32" height="39.95"/><circle class="cls-5" cx="142.78" cy="232.99" r="14.66"/><circle class="cls-5" cx="250.01" cy="232.99" r="14.66"/><path class="cls-6" d="M30.05,6.59c7.59,0,31.57-.14,33.93,25.55C65.74,51.41,74.1,151,77,192c0,0,.91,25.69,25.9,26.11,27.66.46,185.57,0,185.57,0"/><path class="cls-6" d="M120.29,49.5c3.23,38.42,7.79,94,9.8,122.15,0,0,0,.74.19,2"/><path class="cls-6" d="M174.94,50.49c3.08,36.58,7.36,88.76,9.5,118"/><path class="cls-6" d="M229.58,51.55c2.87,34.07,6.78,81.7,9,111.65"/><path class="cls-6" d="M288.63,51.41v70.5c0,28.47-12.35,36.74-40.55,40.55l-5.47.6-57.49,6.3-56.3,6.17-52.33,5.73-1.32-16.17-.31-3.79-1.68-20.66L73,138.88l-.22-2.76-.62-7.56-2-24.45L69.2,92l-2-24.45L65.88,51.41Z"/><rect class="cls-7" width="32.96" height="13.18"/><rect class="cls-7" x="104.29" y="211.74" width="184.21" height="13.18"/><line class="cls-6" x1="68.93" y1="94.07" x2="288.63" y2="87"/><line class="cls-6" x1="72.72" y1="138.76" x2="288.63" y2="121.91"/></g></g></g></svg>