<svg xmlns="http://www.w3.org/2000/svg" viewBox="0 0 325.58 251.15"><defs><style>.cls-1{fill:#eae6e1;}.cls-2{fill:#3c6d3c;}.cls-3{fill:#f4f0e9;}.cls-4{fill:#bab143;}.cls-5{fill:#b7a944;}.cls-6{fill:#d3cd63;}</style></defs><title>icon-2</title><g id="Layer_2" data-name="Layer 2"><g id="Layer_1-2" data-name="Layer 1"><g id="Ikon_-_Profit" data-name="Ikon - Profit"><rect class="cls-1" x="23.93" y="48.79" width="253.61" height="120.44" transform="translate(-27.26 54.94) rotate(-18.98)"/><path class="cls-2" d="M256.86,0,221.73,12.08,35.15,76.24,0,88.33H0l12.09,35.15h0l20,58.2h0l12.09,35.14h0l35.15-12.08,186.58-64.17,35.13-12.08h0L256.86,0ZM76.38,198.26A37.2,37.2,0,0,0,41,179.8h0L20.25,119.51h0A37.17,37.17,0,0,0,37,84.45L225.35,19.67A37.19,37.19,0,0,0,260.07,37h0l20.74,60.29h0a37.17,37.17,0,0,0-16.53,36.32Z"/><circle class="cls-3" cx="19.15" cy="97.16" r="6.22"/><circle class="cls-3" cx="54.27" cy="199.28" r="6.22"/><circle class="cls-3" cx="247.2" cy="18.74" r="6.22"/><circle class="cls-3" cx="282.32" cy="120.86" r="6.22"/><circle class="cls-2" cx="150.8" cy="109.21" r="51.8"/><path class="cls-1" d="M169.09,133a1.58,1.58,0,0,1,1.25-1.44l7.91-1.72s3.82-1.5,3.36-4.71-1.7-2.92-2.27-4.2.54-1.31.7-2.13-1-2.3-1.41-2.12.94-.79.79-2-1.65-1.61-1.87-2.65,3.25-1.56,3-3.58-8.81-6.54-9.08-8.27.55-2.5.1-4c-.35-1.18-4-7.12-5.56-9.62a1.55,1.55,0,0,1,.13-1.85c1.06-1.19,2.54-3.91.82-8.9l-1.18,1.93s-2.11-3.18-3.24-3.37c0,0,.5,3.18-.28,3.4a13.4,13.4,0,0,0-.88-2.88,1.61,1.61,0,0,0-2.6-.39,6.1,6.1,0,0,1-1.95,1.17c-3,1.19-5.9-.28-17.79,3.32a24.89,24.89,0,0,0-9.48,5.41c-.36.39-.73-1.21-.73-1.21s-1.49,2.35-1.3,3.14-10.78,7-5.72,22.86c3.38,10.61,14.78,15.72,17.41,21.48,4.45,9.81-3.69,21.9-6.05,28.06s46.34,1.31,47.62,1.14-11.3-12.93-12.26-18.89a1.88,1.88,0,0,1,0-.41Z"/><path class="cls-4" d="M269.93,94.89c-30.73,0-55.65-9.63-55.65-21.5V89.61c0,11.87,24.92,21.5,55.65,21.5s55.65-9.63,55.65-21.5V73.39C325.58,85.26,300.66,94.89,269.93,94.89Z"/><path class="cls-5" d="M269.92,111.06c-30.74,0-55.65-9.63-55.65-21.51v16.23c0,11.87,24.91,21.5,55.65,21.5s55.64-9.63,55.64-21.5V89.55C325.56,101.43,300.65,111.06,269.92,111.06Z"/><path class="cls-4" d="M269.93,127.24c-30.73,0-55.65-9.63-55.65-21.51V122c0,11.87,24.92,21.5,55.65,21.5s55.65-9.63,55.65-21.5V105.73C325.58,117.61,300.66,127.24,269.93,127.24Z"/><path class="cls-5" d="M269.92,143.41c-30.74,0-55.65-9.63-55.65-21.51v16.23c0,11.87,24.91,21.5,55.65,21.5s55.64-9.63,55.64-21.5V121.9C325.56,133.78,300.65,143.41,269.92,143.41Z"/><path class="cls-4" d="M269.93,159.51c-30.73,0-55.65-9.63-55.65-21.5v16.22c0,11.88,24.92,21.5,55.65,21.5s55.65-9.62,55.65-21.5V138C325.58,149.88,300.66,159.51,269.93,159.51Z"/><path class="cls-5" d="M269.92,175.68c-30.74,0-55.65-9.63-55.65-21.5V170.4c0,11.88,24.91,21.5,55.65,21.5s55.64-9.62,55.64-21.5V154.18C325.56,166.05,300.65,175.68,269.92,175.68Z"/><path class="cls-4" d="M269.93,191.86c-30.73,0-55.65-9.63-55.65-21.5v16.22c0,11.88,24.92,21.5,55.65,21.5s55.65-9.62,55.65-21.5V170.36C325.58,182.23,300.66,191.86,269.93,191.86Z"/><path class="cls-5" d="M269.92,208c-30.74,0-55.65-9.63-55.65-21.5v16.22c0,11.88,24.91,21.5,55.65,21.5s55.64-9.62,55.64-21.5V186.53C325.56,198.4,300.65,208,269.92,208Z"/><ellipse class="cls-6" cx="269.93" cy="73.39" rx="55.65" ry="21.51"/><path class="cls-4" d="M201.84,170.31c-30.73,0-55.65-9.63-55.65-21.51V165c0,11.88,24.92,21.51,55.65,21.51s55.64-9.63,55.64-21.51V148.8C257.48,160.68,232.57,170.31,201.84,170.31Z"/><path class="cls-5" d="M201.82,186.47c-30.73,0-55.64-9.62-55.64-21.5v16.22c0,11.88,24.91,21.51,55.64,21.51s55.65-9.63,55.65-21.51V165C257.47,176.85,232.56,186.47,201.82,186.47Z"/><path class="cls-4" d="M201.84,202.66c-30.73,0-55.65-9.63-55.65-21.51v16.22c0,11.88,24.92,21.51,55.65,21.51s55.64-9.63,55.64-21.51V181.15C257.48,193,232.57,202.66,201.84,202.66Z"/><path class="cls-5" d="M201.82,218.82c-30.73,0-55.64-9.62-55.64-21.5v16.22c0,11.88,24.91,21.51,55.64,21.51s55.65-9.63,55.65-21.51V197.32C257.47,209.2,232.56,218.82,201.82,218.82Z"/><path class="cls-4" d="M201.84,234.93c-30.73,0-55.65-9.63-55.65-21.5v16.22c0,11.87,24.92,21.5,55.65,21.5s55.64-9.63,55.64-21.5V213.43C257.48,225.3,232.57,234.93,201.84,234.93Z"/><ellipse class="cls-6" cx="201.84" cy="148.8" rx="55.65" ry="21.51"/></g></g></g></svg>