<svg xmlns="http://www.w3.org/2000/svg" viewBox="0 0 347.02 230.11"><defs><style>.cls-1{fill:#a7966f;}.cls-2{fill:#6d6248;}.cls-3{fill:none;stroke:#7c6f55;stroke-linecap:round;stroke-linejoin:round;stroke-width:6px;}.cls-4{fill:#9f8f69;}</style></defs><title>icon-3</title><g id="Layer_2" data-name="Layer 2"><g id="Layer_1-2" data-name="Layer 1"><g id="Ikon_-_Kasse" data-name="Ikon - Kasse"><polygon class="cls-1" points="46.62 65.92 46.88 168.37 216.49 230.11 216.24 127.66 46.62 65.92"/><polygon class="cls-2" points="216.24 127.66 216.49 230.11 300.65 187.68 300.4 85.23 216.24 127.66"/><polygon class="cls-1" points="300.4 85.23 130.79 23.5 130.79 96.56 216.24 127.66 300.4 85.23"/><polygon class="cls-1" points="247.54 131.96 272.8 119.23 272.8 111.31 247.54 124.04 247.54 131.96"/><path class="cls-2" d="M130.79,23.5,46.62,65.92l84.17,30.64V23.5Zm-27.67,34L77.87,70.24V62.32l25.25-12.73Z"/><line class="cls-3" x1="63.96" y1="129.77" x2="94.69" y2="140.96"/><line class="cls-3" x1="158.5" y1="188.51" x2="197.62" y2="202.75"/><line class="cls-3" x1="63.96" y1="154.1" x2="113.6" y2="172.16"/><path class="cls-2" d="M0,89.41v1.5l169.61,61.75,46.62-23.5v-1.5l-46.63,23.49ZM347,61.73,300.4,85.23v1.5L347,63.23Z"/><path class="cls-4" d="M46.63,65.91,0,89.41l169.61,61.74,46.62-23.49ZM177.39,0l-46.6,23.5L300.4,85.22,347,61.73Z"/></g></g></g></svg>